/* XPM */
static char *colec[] = {
/* columns rows colors chars-per-pixel */
"30 30 170 2 ",
"   c black",
".  c #000103",
"X  c #060301",
"o  c #0C0702",
"O  c #110A03",
"+  c #160C04",
"@  c #1A0E05",
"#  c #0C1003",
"$  c #1C1504",
"%  c #251407",
"&  c #2C1605",
"*  c #221B05",
"=  c #2C1709",
"-  c #2B1809",
";  c #2B1B09",
":  c #2B1C09",
">  c #2D1E0D",
",  c #2D1F0E",
"<  c #311B0A",
"1  c #341D0A",
"2  c #311D0D",
"3  c #381E0A",
"4  c #2F2504",
"5  c #3C210B",
"6  c #38230E",
"7  c #3C250F",
"8  c #3E2B0F",
"9  c #303104",
"0  c #373006",
"q  c #3A3207",
"w  c #352113",
"e  c #3A2713",
"r  c #32281A",
"t  c #3C2A1B",
"y  c #302923",
"u  c #302B28",
"i  c #312B28",
"p  c #3D332E",
"a  c #40230C",
"s  c #49270D",
"d  c #4A280E",
"f  c #4C2A0F",
"g  c #512B0E",
"h  c #542D0F",
"j  c #412D1A",
"k  c #512D10",
"l  c #542E10",
"z  c #542F11",
"x  c #572F10",
"c  c #583112",
"v  c #663814",
"b  c #693A14",
"n  c #6A3A15",
"m  c #6D3C15",
"M  c #42332A",
"N  c #43332A",
"B  c #453C2B",
"V  c #47423E",
"C  c #94521F",
"Z  c #99551F",
"A  c #A3591F",
"S  c #975624",
"D  c #9A5722",
"F  c #9F5921",
"G  c #9D5B27",
"H  c #9F5C26",
"J  c #9D5B28",
"K  c #9D5C28",
"L  c #9D5F2D",
"P  c #A05A22",
"I  c #A15B24",
"U  c #A25D26",
"Y  c #A65E25",
"T  c #A35E28",
"R  c #9F6232",
"E  c #A4602B",
"W  c #A5622D",
"Q  c #A6642F",
"!  c #A8622A",
"~  c #AA642D",
"^  c #A76530",
"/  c #AB6730",
"(  c #A86733",
")  c #A86734",
"_  c #AC6832",
"`  c #A86835",
"'  c #A96835",
"]  c #AA6A38",
"[  c #AB6C3B",
"{  c #AC6D3B",
"}  c #A86C3D",
"|  c #AD6F3E",
" . c #B16931",
".. c #B26C35",
"X. c #B16F3C",
"o. c #B4703A",
"O. c #B1713E",
"+. c #A76F44",
"@. c #AA6F40",
"#. c #AA7043",
"$. c #AF7243",
"%. c #AF784F",
"&. c #B37341",
"*. c #B27442",
"=. c #B47543",
"-. c #B07445",
";. c #B47644",
":. c #B57644",
">. c #B67847",
",. c #B17648",
"<. c #B3784B",
"1. c #B47A4D",
"2. c #B57C4F",
"3. c #B17A50",
"4. c #B77E53",
"5. c #C69533",
"6. c #C59632",
"7. c #CC9A35",
"8. c #D29E35",
"9. c #D59F35",
"0. c #D3A135",
"q. c #D5A035",
"w. c #E1C41E",
"e. c #E7CA1E",
"r. c #E8CB1C",
"t. c #E8CC1D",
"y. c #ECCD1F",
"u. c #F0D31E",
"i. c #F5D71F",
"p. c #F6D71F",
"a. c #E9E506",
"s. c #F1EE00",
"d. c #F3EF05",
"f. c #F2F003",
"g. c #F9F600",
"h. c #F9F504",
"j. c #F8F615",
"k. c #F9F418",
"l. c #F0D122",
"z. c #F5D521",
"x. c #F4D620",
"c. c #F0D427",
"v. c #F6DB29",
"b. c #F8DD28",
"n. c #E9CF37",
"m. c #F7DB38",
"M. c #F7DB3A",
"N. c #F7DE3B",
"B. c #F8DC3F",
"V. c #F0EE28",
"C. c #FAF428",
"Z. c #B78054",
"A. c #B98257",
"S. c #B98358",
"D. c #BA855B",
"F. c #BB865C",
"G. c #BC875E",
"H. c #BC885F",
"J. c #F7DF46",
"K. c #F7DD4A",
"L. c #E7E5D8",
"P. c #FCFDDA",
"I. c #FCFADE",
"U. c #FDFCDE",
"Y. c #EFEDE6",
"T. c #F5F3E6",
"R. c #FDFDE3",
"E. c #F8F6E9",
"W. c #F9F7EF",
"Q. c #F1F1F0",
/* pixels */
"O Z U U I U Y d z Y F T U T C o O O O O O O   z :.G.W 4.S.U ",
"O G A.S.A.A.&.s z :./ ,.4.4.S @ S K D D D F d h :.H.' -.S.U ",
"O G A.4.-.] =.s h >.[ 2.W 1.S @ H 1.` $.` *.d z =.A.D.W 4.T ",
"O K 1.Q ,.' :.s h :.F.1.T 4.S @ U 3.E >.' $.d z >.~ -.W >.U ",
"O G 1.^ ,.' :.s z :.F.{ ^ 4.S @ G 4.] ,.' =.d h >.*.1.W 4.U ",
"O J 1.W 1.-.:.s z -.1.S.F.S.S @ G D.F.$.~ *.d z :.F.F.W 4.U ",
"O K 1.W G.4._ d z =.-.4.$.4.S @ J F.D.{ -.-.d z ..:.*.W X.Y ",
"O D { -.4.[ / d z :.,.3.K w     & 1.' -.H.=.f % f d d d s s ",
"O D &.H.4.<.=.s z :.L y y L.E.E.L.r w ] F.$.f = z z z z z k ",
"O G F.3.{ H.=.s z -.p Q.E.N.B.M.v.l.7.6 #.>.s z o.~ A F O.Y ",
"O G S.<./ F.&.s z } V T.J.C.I.I.s.i.9.8 R &.s z <.~ { W 4.U ",
"O G F.<.^ G.=.s g N Y.K.k.P.C.n.9 d.i.9.e &.d g <./ 1.W 1.U ",
"O D / ,.Q G.=.d k i W.M.j.R.g.r.# f.i.q.; #.s z >./ <.W Z.T ",
"O G 4.S.4.G.&.d k i W.M.j.R.g.r.# f.i.q.: } s h >.~ 1.W <.Y ",
"O D / <.' G.*.d g i W.M.j.R.g.t.# f.i.9.> #.d z :.) ,.^ <.U ",
"O C ^ <.Q H.*.d g i W.M.k.R.g.t.# s.i.q.> $.d k :.F.^ 1.D.U ",
"O K A.<.^ F.$.d g u W.M.j.R.g.e.# s.x.9.w @.d k >.F.! 1.F.U ",
"O G D.1.^ F.:.d g u W.M.j.R.b.e.# f.x.9., @.d g =.F.] ,.A.U ",
"O G 4.$.' 4.=.d h N Y.m.j.R.c.w.9 f.x.8.j | d l =.Z.Z.W 1.U ",
"O G 1.^ -.' *.s k ' B u.g.V.q 0 a.x.q.8 <.=.s l <.^ <.W 4.U ",
"O K 1.W ,.' :.f = n 4 t.x.x.y.y.x.9.7.e T -.f z >.~ 1.W 2.U ",
"O K 1.^ ,.' :.f % a 5 $ * 6.8.8.5.> t +.] $.s k <.-.{ | 4.U ",
"O K 1./ <.' :.d z ..! ^ K 2   . = %.$.$.) =.s z :.H.$.{ Z.U ",
"O P _ W _ !  .f h 1.>.A.E 4.S @ J 1.^ -.) =.s l :.$.4.W 4.U ",
"X 1 1 3 1 1 3 + h >.=.4.,.4.S @ I 1.^ -.' =.f h =./ <.W 2.U ",
"o v n n b n m 1 h =.:.A.] 4.S @ J 4.$.W ' *.d z :.' <.W 1.U ",
"O H *.! 2.2.X.d z :.G.' $.D.S @ J F.S.<.4.*.d h <.^ <.W 4.U ",
"O K 1.P { H.*.d z =.G.4.^ 4.S @ J 4.) F.H.O.d h =.4.S.W 1.U ",
"O D U W -.{ :.d z =.F.S.T 1.S @ J 4.4.4.F.*.d k =.{ <.4.Z.U ",
"O Z T A.-.' :.d z Y Y Y F T C @ D U U U U Y d h Y P U U U P "
};
