/* XPM */
static char * exit_xpm[] = {
"30 30 60 1",
" 	c None",
".	c #363A40",
"+	c #35393D",
"@	c #313336",
"#	c #2E3339",
"$	c #16191D",
"%	c #191A1D",
"&	c #B1B0AE",
"*	c #FAE7E8",
"=	c #D0262B",
"-	c #1F2228",
";	c #26292D",
">	c #262B31",
",	c #1A1D22",
"'	c #32363A",
")	c #67686A",
"!	c #737373",
"~	c #535659",
"{	c #3D4145",
"]	c #3F4349",
"^	c #4E5155",
"/	c #525355",
"(	c #474B50",
"_	c #22252A",
":	c #656768",
"<	c #45494E",
"[	c #5F6063",
"}	c #6E6F70",
"|	c #6B6C6D",
"1	c #626365",
"2	c #2A2D32",
"3	c #1E2125",
"4	c #4A4E52",
"5	c #777778",
"6	c #292C2E",
"7	c #3A3C3E",
"8	c #111316",
"9	c #777878",
"0	c #4A4B4D",
"a	c #5A5B5D",
"b	c #3A3D42",
"c	c #57595C",
"d	c #212326",
"e	c #6B6B6A",
"f	c #414345",
"g	c #3A9532",
"h	c #36AB2B",
"i	c #131619",
"j	c #BFBFBF",
"k	c #7A7A7A",
"l	c #5C5E61",
"m	c #2E3136",
"n	c #6F7070",
"o	c #41454A",
"p	c #D8D8D8",
"q	c #595959",
"r	c #666666",
"s	c #ACACAC",
"t	c #4E4E4E",
"u	c #0D0E11",
" .+@#$%&**=*=*=*=***&-;>;;,   ",
"')!~{;'&*===*==*==*=&]^^/(#_> ",
"'):~.#<&**=*=*=*==*=&[}}|12</_",
"3<^._.4&&&&&&&&&&&&&&}}!5/627$",
"82{';@~|:!90%2a!:{-,0!!1b@b+>,",
"860}|&&&&&&&&&&&&&&&&&&&;^c4bd",
",^~c:&eeeeeeeeeeeeeeeee&/!)^<6",
"6a/f(&eghghgghgghghhhhg&||/c~>",
"i#+<4&egghhhhjjkghhhhhg&|1al4d",
"8m]<]&eggggghjjkhhhhhhg&//1:. ",
" ,-;m&eggghjjkkkhhhhhhg&:<;>,i",
"  ,#<&egggjkjjkhhhhhhhh&nf_>;,",
"  24:&eggjkkjjkkkkkkkjk&72..'_",
" #fak&eggjkjkkjjkjjjjjj&;f<{o;",
"${//|&eggkgjjkhhhkkkkjk&+(<<(6",
";<a1a&eggggjkjkhhhhhhhh&.(4c(;",
";oc}a&eggjjkhhjkhhhhhhh&'<1|^;",
",]cn|&ppgkkghhkkhhhhhhh&,@<0@8",
"$#/!|&ppqgghhhhhhhhhhhh&2oo.'%",
" 3b)5&rrrrrhhhhhhhhhhhh&a:/(b,",
" 360c&ssttthhhhhhhhhhhh&||c4o,",
" #].'&ppqgghhhhhhhhhhhh&||a4o,",
"3]c1[&qpqgghhhhhhhhhhhh&/!14.$",
";41)[&qqqghhhhhhhhhhhhh&211(; ",
";0<{{&eghhhhhhhhhhhhhhh&d'f', ",
",o]]4&eghhhghhhhhhhhhhh&~<'@, ",
"$#(ln&egghhhhhhhhhhhhhh&!(~c'8",
" 3b^l&eghhhhhhhhhhhhhhg&n~c1b$",
"  3m'&eggghhhhhhhhhhhhg&a~/l7 ",
"   uu&eghhhhhhhhhhhhhhg&$d6d$ "};
