/* XPM */
static char *exit[] = {
/* columns rows colors chars-per-pixel */
"30 30 132 2 ",
"   c #437C3E",
".  c #475C45",
"X  c #5F5C5F",
"o  c #466743",
"O  c #506A4E",
"+  c #4B7647",
"@  c #4C7E47",
"#  c #4F7E4B",
"$  c #507E4C",
"%  c #5A7057",
"&  c #615A61",
"*  c #6A6A6A",
"=  c #777677",
"-  c #79727A",
";  c #7D7C7D",
":  c #D2292E",
">  c #D22C31",
",  c #D4353A",
"<  c #D74347",
"1  c #D5494D",
"2  c #C94E51",
"3  c #DA4F53",
"4  c #C65053",
"5  c #D8585C",
"6  c #DD5E62",
"7  c #CD6466",
"8  c #C0696B",
"9  c #CE696C",
"0  c #DC666A",
"q  c #D17476",
"w  c #36952E",
"e  c #369E2C",
"r  c #389C2F",
"t  c #399631",
"y  c #3A9A32",
"u  c #32AB27",
"i  c #35A32B",
"p  c #38A02E",
"a  c #36AB2B",
"s  c #38AA2E",
"d  c #3AA430",
"f  c #3CA932",
"g  c #44803E",
"h  c #458B3F",
"j  c #43973B",
"k  c #40A437",
"l  c #45A13C",
"z  c #43AD39",
"x  c #4B8446",
"c  c #4E8449",
"v  c #4E8948",
"b  c #50804B",
"n  c #528C4D",
"m  c #479340",
"M  c #489B40",
"N  c #588254",
"B  c #5B8C57",
"V  c #4DA645",
"C  c #678764",
"Z  c #658A62",
"A  c #688865",
"S  c #6D846B",
"D  c #70806F",
"F  c #768274",
"G  c #7B837B",
"H  c #7E8C7C",
"J  c #76AD6F",
"K  c #77A472",
"L  c #78A272",
"P  c #77AC71",
"I  c #7FAD7A",
"U  c #77B571",
"Y  c #7FB07A",
"T  c #82977F",
"R  c #81AC7D",
"E  c #838483",
"W  c #888786",
"Q  c #858E84",
"!  c #8F8E8F",
"~  c #918F8F",
"^  c #849A82",
"/  c #8F948F",
"(  c #8F998C",
")  c #959293",
"_  c #959A94",
"`  c #999997",
"'  c #9C989A",
"]  c #84A881",
"[  c #8CA48A",
"{  c #8FB08C",
"}  c #9DA59D",
"|  c #97B794",
" . c #9EB39C",
".. c #A4A3A2",
"X. c #A3AEA2",
"o. c #A9A8A7",
"O. c #ADAEAC",
"+. c #B5A5A4",
"@. c #B6A8A6",
"#. c #B0AFAD",
"$. c #AFB0AE",
"%. c #B1B0AE",
"&. c #B0BEAE",
"*. c #B2B3B2",
"=. c #B9B4B2",
"-. c #B9B8B6",
";. c #B7B4B8",
":. c #B9B7B9",
">. c #BDBCBD",
",. c #E98B8E",
"<. c #E89DA0",
"1. c #DFB3B4",
"2. c #EDA6A9",
"3. c #EBADAF",
"4. c #E0B3B4",
"5. c #E1BDBE",
"6. c #F2B5B8",
"7. c #C1BDC2",
"8. c #C3C3C3",
"9. c #CEC6C5",
"0. c #DCC0C1",
"q. c #D8CECD",
"w. c #DBD3D3",
"e. c #DEDDDF",
"r. c #E1C0C1",
"t. c #F0C5C6",
"y. c #F4C7C9",
"u. c #F2CDCE",
"i. c #E9DEDE",
"p. c #F6D8D9",
"a. c #F7DFE0",
"s. c None",
/* pixels */
"s.s.s.s.s.s.s.#.*.-.@.=.+.=.+.=.+.-.=.-.%.s.s.s.s.s.s.s.s.s.",
"s.s.s.s.s.s.s.O.q.p.5 <.0 3.< t.1 u.p.0.$.s.s.s.s.s.s.s.s.s.",
"s.s.s.s.s.s.s.O.w.,.> < 2.6 , y.: 3 6.4 *.s.s.s.s.s.s.s.s.s.",
"s.s.s.s.s.s.s.O.9.i.q 4.9 5.7 r.2 9 1.8 *.s.s.s.s.s.s.s.s.s.",
"s.s.s.s.s.s.s.s.%.O.*.%.$.$.*.$.*.*.$.*.s.s.s.s.s.s.s.s.s.s.",
"s.s.s.s.s.s.s.s.s.s.s.s.s.s.s.s.s.s.s.s.s.s.s.s.s.s.s.s.s.s.",
"s.s.s.s.s.s...) ) ) ) ) ) ) ) ) ) ) ) ) ) ) ..s.s.s.s.s.s.s.",
"s.s.s.s.s.s.) % c b c # $ x @ c v $ v v c x T s.s.s.s.s.s.s.",
"s.s.s.s.s.s.) $ e i a i i U R B p i a a u u K s.s.s.s.s.s.s.",
"s.s.s.s.s.s.) $ t y r e a &.7.G d a a a a i K s.s.s.s.s.s.s.",
"s.s.s.s.s.s.) $ t t e I | / ! = s a a a a e K s.s.s.s.s.s.s.",
"s.s.s.s.s.s.) $ w t Y _ ;.O.G l a a a a a u J s.s.s.s.s.s.s.",
"s.s.s.s.s.s.) $ w I _ ; *.>.E S S S D S ^ [ ( s.s.s.s.s.s.s.",
"s.s.s.s.s.s.) $ w { ! o.~ E $.O.E *.*.*.:.:.*.s.s.s.s.s.s.s.",
"s.s.s.s.s.s.) # w C n  .;.W V f l G G G _ } _ s.s.s.s.s.s.s.",
"s.s.s.s.s.s.) # w j M  .Q X.H f a f f f f s P s.s.s.s.s.s.s.",
"s.s.s.s.s.s.' Z j ] -.Q l f X.F s a a a a u J s.s.s.s.s.s.s.",
"s.s.s.s.s.s.8.e.R N S m a s C C s a a a a u J s.s.s.s.s.s.s.",
"s.s.s.s.s.s.*.>.E + h i a a a a a a a a a u J s.s.s.s.s.s.s.",
"s.s.s.s.s.s.' = * X & j a a a a a a a a a u J s.s.s.s.s.s.s.",
"s.s.s.s.s.s.:.8.; . o y a a a a a a a a a u J s.s.s.s.s.s.s.",
"s.s.s.s.s.s.O.8.)   y i a a a a a a a a a u J s.s.s.s.s.s.s.",
"s.s.s.s.s.s.W = - @ r a a a a a a a a a a u J s.s.s.s.s.s.s.",
"s.s.s.s.s.s.~ O g y a a a a a a a a a a a u J s.s.s.s.s.s.s.",
"s.s.s.s.s.s.) $ i a a p s a a a a a a a a u J s.s.s.s.s.s.s.",
"s.s.s.s.s.s.) $ w s a s i a a a a a a a a u J s.s.s.s.s.s.s.",
"s.s.s.s.s.s.) $ p a a a a a a a a a a a a i K s.s.s.s.s.s.s.",
"s.s.s.s.s.s.) $ r y i a a a a a a a a a a i L s.s.s.s.s.s.s.",
"s.s.s.s.s.s.) $ p a a a a a a a a a a a a i K s.s.s.s.s.s.s.",
"s.s.s.s.s.s.) $ i a a a a a a a y y y i y w K s.s.s.s.s.s.s."
};
