/* XPM */
static char *floor[] = {
/* columns rows colors chars-per-pixel */
"30 30 102 2 ",
"   c #030201",
".  c #060301",
"X  c #0C0702",
"o  c #110903",
"O  c #110A03",
"+  c #140B04",
"@  c #160C04",
"#  c #1A0E05",
"$  c #1F1106",
"%  c #251407",
"&  c #2B1809",
"*  c #311B0A",
"=  c #341D0A",
"-  c #381E0A",
";  c #3B210C",
":  c #40230C",
">  c #47270E",
",  c #49270D",
"<  c #4A280E",
"1  c #4C2A0F",
"2  c #542D0F",
"3  c #542E10",
"4  c #542F11",
"5  c #572F10",
"6  c #573011",
"7  c #583112",
"8  c #5F3413",
"9  c #623613",
"0  c #663814",
"q  c #693A14",
"w  c #6A3A15",
"e  c #6D3C15",
"r  c #94531E",
"t  c #94521F",
"y  c #99541E",
"u  c #99551F",
"i  c #A3591F",
"p  c #975624",
"a  c #975724",
"s  c #9A5722",
"d  c #9B5823",
"f  c #9F5921",
"g  c #9D5B27",
"h  c #9F5C26",
"j  c #9D5B28",
"k  c #9D5C28",
"l  c #A05A22",
"z  c #A15B24",
"x  c #A25D26",
"c  c #A65E25",
"v  c #A35E28",
"b  c #A4602B",
"n  c #A4612B",
"m  c #A5622D",
"M  c #A6642F",
"N  c #A86028",
"B  c #A8622A",
"V  c #AA642D",
"C  c #A76530",
"Z  c #AB6730",
"A  c #A86632",
"S  c #A86734",
"D  c #AC6832",
"F  c #A96835",
"G  c #AD6A35",
"H  c #AA6A38",
"J  c #AB6B39",
"K  c #AB6C3B",
"L  c #AC6D3B",
"P  c #AC6E3C",
"I  c #B16931",
"U  c #B26C35",
"Y  c #B16F3C",
"T  c #AD703F",
"R  c #B4703A",
"E  c #B1713E",
"W  c #B5713C",
"Q  c #AF7242",
"!  c #AF7243",
"~  c #B37341",
"^  c #B27442",
"/  c #B47543",
"(  c #B07445",
")  c #B57644",
"_  c #B67847",
"`  c #B17648",
"'  c #B3784B",
"]  c #B67848",
"[  c #B3794C",
"{  c #B47A4D",
"}  c #B77C4D",
"|  c #B57C4F",
" . c #B77E53",
".. c #B77F53",
"X. c #B77F54",
"o. c #B78054",
"O. c #B98257",
"+. c #B98358",
"@. c #BA855B",
"#. c #BB865C",
"$. c #BC875E",
"%. c #BC885F",
/* pixels */
"O u x x z x c < 4 c f v x v t X O O O O O O   7 ) #.m  .O.x ",
"O g O.+.O.O.~ , 4 ) Z `  . .p # t g s s s z , 2 ) #.F ` O.x ",
"O g O. .( H / , 2 _ K | m { p # k { Z ( F ^ < 2 ) o.O.m  .x ",
"O k { M ` F ) , 2 ) #.{ v  .p # k { m ] F ( < 4 ] C ` m { x ",
"O g { C ` F ) , 4 ) #.L C  .p # g  .L ( F / < 2 _ Q { m  .x ",
"O j { m { ( ) , 4 ( { +.#.+.p # g +.$.( Z / , 2 ) $.@.m  .x ",
"O k { m $. .D < 2 ) !  .!  .p # g @.O.P ! ( , 4 U ) ^ B Y c ",
"O s L (  .K Z < 4 _ `  .m  .p # k  .L ( %.) 1 % 1 < < < , , ",
"O s ~ $. .' ) , 2 ) C ' m ] p # g  .P ~ #.( 1 & 4 4 4 4 4 4 ",
"O j #.| P $./ , 4 ] C { ' O.p # g @.O.P ( ) < 4 R V i l E c ",
"O g +.' C $.~ , 2 )  .F o.+.p # g +.$.` F ) < 2 ] Z P b  .x ",
"O g @.' C $./ , 2 ) $.m m  .p # g @.@.( F ) < 2 ] C ' m { x ",
"O s Z ` M $./ < 4 ) #. .v  .p # g +.@.( F ( , 3 ] A ] m  .x ",
"O g  .+. .$.~ < 4 ( #.#.m { p # g @.{ x L ! , 3 ] C { m { v ",
"O s C { F $.~ < 2 ) #.o.m { p # g O.O. .+./ < 3 ) S ` C { x ",
"O r C ' M $.^ < 2 ) +.A f  .p # g { Z @.@./ < 3 ) @.C { +.x ",
"O g +.' C #.! < 2 ~ F { m { p # k { m #.#./ , 2 _ #.m { @.x ",
"O g @.{ C #.) < 2 B ( +.b | p # k { m @.#./ , 2 ) #.H ` O.x ",
"O g  .Q F  ./ , 2 _ C ' L  .p # k { m #.#.~ , 2 )  .o.m { x ",
"O g { C ` S / , 4 W V E ] ] d # k { m +. ./ , 2 ] C ' m  .x ",
"O k { m ` F ) 1 & 9 9 8 8 8 7 + k L ~ ( Z ) < 2 ] C { m | x ",
"O k { C ` F ) 1 % : : : : : ; + a Q %.` F ( , 2 ] ( P P  .x ",
"O k { Z ' F ) < 7 U B G b L d # k  .( ` F / < 2 ) %.Q K o.x ",
"O l D b D B I 1 2 ] ] O.b } p # j { m ( F / , 2 ] Q  .m  .x ",
". = = - = - - @ 5 _ ~  .'  .p # h { C ( F ) < 2 ) C ' m | x ",
"X 0 w w q q e * 2 / ] O.K  .p # j o.Q m F / < 4 ) F ' m { x ",
"O h ^ B | } Y < 4 ) #.H ! +.p # g +.+.'  .^ , 2 ] C ' m  .x ",
"O k { l L $./ , 4 ) #. .C  .p # g  .F #.#.~ , 2 )  .+.m { x ",
"O s x m ( P ) < 3 ) @.+.b { p # g o. .o.@.~ , 4 ) K '  .o.x ",
"O u v O.( F ) < 3 c x x f x r # s x x x x c < 4 c l x x x f "
};
