/* XPM */
static char *_ac985786dbb4be1a5dad0a0a58862baPIKXzYCiLk13WOOW[] = {
/* columns rows colors chars-per-pixel */
"32 32 3 1 ",
"  c black",
". c #9F5820",
"X c #BA845A",
/* pixels */
" ....... .......         .XX.XX.",
" .XXXXX. .X.XXX. ....... .XX.XX.",
" .XXX.X. .X.X.X. .X.X.X. .XXX.X.",
" .X.X.X. .XXX.X. .X.X.X. .X.X.X.",
" .X.X.X. .XX..X. .X.X.X. .X.X.X.",
" .X.X.X. .XXXXX. .XXX.X. .XXX.X.",
" .X.XXX. .X.XXX. .XXX.X. .XXX.X.",
" .X.XX.. .XXX.X. .XX.XX. .......",
" ..XX.X. .X.X.X. .X.XXX.        ",
" .XXXXX. .X.X.X. .XX.XX. .......",
" .XX.XX. .X.XXX. .XXX.X. .X...X.",
" .XX.XX. .XX.XX. .XXX.X. .X.X.X.",
" .XX.XX. .XX..X. .XXX.X. .X.X.X.",
" ..X.XX. .XXX.X. .XXX.X. .X.X.X.",
" .XXXXX. .XXX.X. .XX..X. .X.X.X.",
" ..X.XX. .XXX.X. .XXXXX. .X.X.X.",
" ..X.XX. .XX..X. .X.XXX. .XX.XX.",
" .XX.XX. .X.X.X. .X.XXX. .XX.XX.",
" .XX.XX. ..XX.X. .X.XXX. .XX.XX.",
" .XX.XX. .X.X.X. .X.XXX. .XXX.X.",
" .X.X.X. .X.XXX. .X.XXX. .X.X.X.",
" .X.X.X. ....... .X.X.X. .X.X.X.",
" .X.X.X.         ..XX.X. .X.X.X.",
" .X.X.X. ....... .XXX.X. .XX.XX.",
" .X.X.X. .X.X.X. .X.X.X. .XXX.X.",
" ....... .XXX.X. .X.X.X. .X.X.X.",
"         .X.XXX. .X.X.X. .X.X.X.",
" ....... .XXX.X. .XX..X. .X.X.X.",
" .X.XXX. .XX.XX. .XXXXX. .X.X.X.",
" .X..XX. .XXX.X. .X.XXX. .XXX.X.",
" ...X.X. .XXX.X. .XXXXX. .X.XXX.",
" ..XX.X. ....... ....... ......."
};
