/* XPM */
static char *mario[] = {
/* columns rows colors chars-per-pixel */
"30 30 183 2 ",
"   c #020100",
".  c #0A0401",
"X  c #110702",
"o  c #110A03",
"O  c #1A0E05",
"+  c #271D01",
"@  c #341D0A",
"#  c #47250B",
"$  c #49270D",
"%  c #4A280E",
"&  c #4A310F",
"*  c #542E11",
"=  c #582D15",
"-  c #583112",
";  c #7C2D18",
":  c #6A3A15",
">  c #683918",
",  c #793118",
"<  c #472E2E",
"1  c #4D2F2F",
"2  c #4E342D",
"3  c #55372B",
"4  c #51352E",
"5  c #4B3333",
"6  c #5D3E33",
"7  c #5D4602",
"8  c #6C5203",
"9  c #725503",
"0  c #765903",
"q  c #5D4034",
"w  c #68462A",
"e  c #704F26",
"r  c #76482C",
"t  c #7B5824",
"y  c #6A4534",
"u  c #2D3577",
"i  c #493C54",
"p  c #46325D",
"a  c #7F5941",
"s  c #725760",
"d  c #7D547A",
"f  c #7F747A",
"g  c #802D19",
"h  c #9A291F",
"j  c #92351E",
"k  c #9C3220",
"l  c #B03526",
"z  c #D43E2E",
"x  c #D93E2F",
"c  c #C63E32",
"v  c #C93F33",
"b  c #DF3F31",
"n  c #94531E",
"m  c #99551F",
"M  c #A3591F",
"N  c #846503",
"B  c #8A631F",
"V  c #946A1E",
"C  c #9F751B",
"Z  c #A47A07",
"A  c #A06A10",
"S  c #AA7D19",
"D  c #975624",
"F  c #9A5722",
"G  c #9D5B26",
"H  c #9D5C28",
"J  c #82583D",
"K  c #A25D26",
"L  c #A35E28",
"P  c #B25828",
"I  c #896321",
"U  c #946237",
"Y  c #9B643B",
"T  c #8B7139",
"R  c #A5622D",
"E  c #A8622A",
"W  c #A76530",
"Q  c #AA6731",
"!  c #AA6835",
"~  c #A66B3E",
"^  c #AB6C3B",
"/  c #B1713E",
"(  c #CB4E2D",
")  c #D24729",
"_  c #DF5029",
"`  c #DB4D30",
"'  c #C25C32",
"]  c #E4472E",
"[  c #F65E2B",
"{  c #F85D2A",
"}  c #ED4335",
"|  c #EA4638",
" . c #F44335",
".. c #FA4231",
"X. c #F34835",
"o. c #F04A3A",
"O. c #E85236",
"+. c #F6642A",
"@. c #FA7720",
"#. c #935956",
"$. c #BA465E",
"%. c #9D7050",
"&. c #A56B40",
"*. c #A96E42",
"=. c #B96E41",
"-. c #AF7243",
";. c #AD774E",
":. c #B47444",
">. c #B97A45",
",. c #B17648",
"<. c #B4794C",
"1. c #B77E53",
"2. c #B27F59",
"3. c #8E497E",
"4. c #904A7B",
"5. c #B14765",
"6. c #A75568",
"7. c #94636F",
"8. c #867A74",
"9. c #847876",
"0. c #A46465",
"q. c #A26D64",
"w. c #A1777C",
"e. c #D3454C",
"r. c #C54556",
"t. c #E54440",
"y. c #E95841",
"u. c #C66848",
"i. c #C07143",
"p. c #C17148",
"a. c #C16250",
"s. c #C77D56",
"d. c #AD8108",
"f. c #B28604",
"g. c #B8880B",
"h. c #B38517",
"j. c #BA8A16",
"k. c #CA970B",
"l. c #D39F05",
"z. c #CD9911",
"x. c #D29D10",
"c. c #DBA606",
"v. c #FDBF07",
"b. c #FDB10C",
"n. c #F6BA08",
"m. c #FDBC0A",
"M. c #FCA312",
"N. c #EBB518",
"B. c #F7BD10",
"V. c #C7872B",
"C. c #D29424",
"Z. c #D59836",
"A. c #D8A528",
"S. c #CBA335",
"D. c #FFC106",
"F. c #FFC209",
"G. c #B59649",
"H. c #A68E56",
"J. c #A88E55",
"K. c #B78054",
"L. c #B98257",
"P. c #BA855B",
"I. c #C2825B",
"U. c #3E4EAD",
"Y. c #3C4FB7",
"T. c #3A4FB9",
"R. c #3E51B5",
"E. c #78518B",
"W. c #65549E",
"Q. c #7B5D92",
"!. c #5C6299",
"~. c #6A6A8D",
"^. c #746F84",
"/. c #656791",
"(. c #676991",
"). c #4453AE",
"_. c #4A52AC",
"`. c #444FB2",
"'. c #4251B3",
"]. c #4854B0",
"[. c #6B5CA3",
"{. c #844A83",
"}. c #966F86",
/* pixels */
"o m K K K K K $ j  . . .o. .}  . . .h o o o   - >.P.R 1.L.K ",
"o H L.L.L.L.:.; l  . . . . . . . . .( P P P ; ; >.P.! ,.L.K ",
"o H L.1.-.^ i.} }  . . . . . . . . . .} } | } } i.1.L.R 1.K ",
"o H <.R -.! =.c ) c v v ` +.[ [ ) l _ +.O.O.x z p.R ;.R <.K ",
"o H <.W ,.! *.2 1 4 4 1 V m.m.m.9 . Z n.V.:.= = >.-.<.R 1.L ",
"o H <.R ;.&.U I t 2 w I j.F.D.F.9   Z D.A.Z.Z Z >.P.P.R 1.K ",
"o H <.R 2.6 e n.x.4 I v.D.D.F.D.8   Z D.v.v.D.n.V.>.:.R / K ",
"o F ^ ,.;.3 e n.x.4 e S z.D.D.F.f.0 N N c.v.D.n.k.g.$ $ $ $ ",
"o F :.P.;.6 e n.x.3 2 < V D.D.D.F.D.7   f.D.v.D.F.F.* * * * ",
"o H L.1.~ %.U V C h.h.h.x.D.D.D.d.8 +   & 8 8 9 V.z.M G / K ",
"o H L.<.R P.&.< t v.D.D.D.v.D.D.9       . o   O *.Q ^ E K.K ",
"X H P.<.! P.-.% B n.D.D.D.D.D.D.l.f.f.f.I Y @ # ,.W <.R <.K ",
"o F Q ,.W P.>.= A b.n.B.n.m.m.m.m.B.m.m.V.,.# * <.W <.R 1.K ",
"o H 1.L.1.I.i.x ] { a./.0.[ { { 0.(.a.{ O.O.g * >.W <.R <.R ",
"o F W <.! I.u.}  ...$.T.{... . .{.Y.5... . .k , :.! ,.R <.K ",
"o n W <.Q y.}  . ...$.T.3. . . .4.Y.5... . .} b i.P.W <.L.K ",
"o H L.p.' o. . . . .$.Y.E.e.e.e.{.Y.5... . . .} u.s.E <.P.K ",
"o H P.|  . . . . ...$.Y.`._._._.`.Y.5... . . . . .o.! <.L.K ",
"o H 1.+.+.+.[  .| r.6.^.!.Y.`.Y.!.^.6.r.t. .[ +.+.+.L.R <.K ",
"o H <.m.m.D.M.X.r.`.f D.G.Y.Y.Y.H.v.8.`.$...M.m.v.m.<.R 1.K ",
"o H <.n.D.D.b.@.u.].(.G.8.R.R.R.8.G.~.R.a.@.b.D.D.D.<.R <.K ",
"o H <.D.D.D.D.D.S.).R.R.R.R.R.R.Y.R.R.).S.D.D.D.D.D.^ ^ K.K ",
"o H K.D.D.D.N.J.8.'.R.R.R.R.R.R.R.R.R.R.f H.N.D.D.D.-.^ K.R ",
"o K Q D.D.D.A._.R.R.R.R.R.R.R.R.R.R.R.R.R.'.A.D.D.D.K.R <.K ",
"  @ @ d.d.d.T U.U.Y.Y.Y.[.}.d u W.R.R.R.R.].T g.Z.C.;.R <.K ",
"o : : : : > s U.Y.U.`.`.Q.K.D O E.).R.R.U._.p = ,.! <.R <.K ",
"o H -.E <.J y i i i s 7.q.P.F O #.w.s i i i 5 3 -.R <.R K.K ",
"o H <.F Y q 4 2 4 4 r 1.R K.D O H K.r 2 2 2 2 2 &.1.L.R <.K ",
"o m K w y 2 2 2 4 5 a P.R ;.F O H K.J 2 2 2 2 2 y y <.K.K.K ",
"o m R 4 2 2 2 2 4 4 r H m R n O m R r 2 2 2 2 2 2 2 H H E m "
};
