/* XPM */
static char *wall[] = {
/* columns rows colors chars-per-pixel */
"30 30 50 1 ",
"  c #0A0C0E",
". c #0D0E11",
"X c #0F1114",
"o c #111316",
"O c #131619",
"+ c #16191D",
"@ c #191A1D",
"# c #1A1D22",
"$ c #1E2125",
"% c #1F2228",
"& c #212326",
"* c #22252A",
"= c #26292D",
"- c #292C2E",
"; c #262B31",
": c #2A2D32",
"> c #2E3136",
", c #2E3339",
"< c #313336",
"1 c #32363A",
"2 c #35393D",
"3 c #3A3C3E",
"4 c #363A40",
"5 c #3A3D42",
"6 c #3D4145",
"7 c #3F4349",
"8 c #414345",
"9 c #41454A",
"0 c #45494E",
"q c #4A4B4D",
"w c #474B50",
"e c #4A4E52",
"r c #4E5155",
"t c #525355",
"y c #535659",
"u c #57595C",
"i c #5A5B5D",
"p c #5C5E61",
"a c #5F6063",
"s c #626365",
"d c #656768",
"f c #67686A",
"g c #6B6C6D",
"h c #6E6F70",
"j c #6F7070",
"k c #737373",
"l c #777778",
"z c #777878",
"x c #7A7A7A",
"c c None",
/* pixels */
"c42<,+@#*=*cO$$+#%Oco%=;==#ccc",
"1fky6=15wruq<i9q70,O:7rrtw,*;c",
"1fdy4,0tpdja5dutye7*0ahhgs:0t*",
"$0r4*4eyufzs-ugspp5%uhhklt-:3+",
"o:61=<ygdkzq@:ikd6%#qkks5<52;#",
"o-qhg85kzki:<:<t5:,##14:=rue5&",
"#ryudt=1uq1496tq542;1692tkfr0-",
"-it8we1$*30e0tky99<2ww94ggtuy;",
"O,20ew,;;9ysdsjtti34eetqgsipe&",
"o>7074;,,9dgjgksdjqqdklsttsd4c",
"c#%=>,6919flktdkkgqqhkgjd0=;#O",
"cc#,0rr957te3:<58q=1jkjlj8*;=#",
"cc:edgiwre2=697eaha1rfhs3:441*",
"c,8ixksigge7e0esksht254<=8069=",
"+6ttgkgjzl56750afist9ut42w00w-",
"=0isikklg3#,57ufa0ieehp24weuw=",
"=9uhiisq,3<<weuffyr6usr110sgr=",
"#7ujgdq<111<9wuffi18gsu1#<0q<o",
"+,tkgktypew2*1886>#2sdq*:9941@",
"c$5flgqflgy33000qq<uu091idtw5#",
"c$-qu<ulgpr8sfyeustlje53ggue9#",
"c,741$3sie95ggpetiills91ggie9#",
"$7usa6&->=@-gdieiyygkgr2tkse4+",
"=esfar3@#:-:dgpesq1eyr92:ssw=c",
"=q066w6%,75wruq33881*:,;&181#c",
"#977er7;5dyr8$#&tsfq*++=y01<#c",
"+,wpjp5%5fdd6##*8e09:*28kwyu1o",
"c$5rp7;+,gje-8e4:651*378jyus5+",
"cc$>1*#$#21#8di7:&1;#,:*iytp3c",
"ccc..Xc+Occo&:--+ ++co..+&-&+c"
};
